<?xml version="1.0" encoding="UTF-8" standalone="no"?><!DOCTYPE svg PUBLIC "-//W3C//DTD SVG 1.1//EN" "http://www.w3.org/Graphics/SVG/1.1/DTD/svg11.dtd"><svg width="100%" height="100%" viewBox="0 0 834 2500" version="1.1" xmlns="http://www.w3.org/2000/svg" xmlns:xlink="http://www.w3.org/1999/xlink" xml:space="preserve" xmlns:serif="http://www.serif.com/" style="fill-rule:evenodd;clip-rule:evenodd;stroke-linejoin:round;stroke-miterlimit:2;"><path d="M85.434,0l-0,937.5l83.333,0l0,-937.5l-83.333,0Z" style="fill:#424242;"/><path d="M85.434,1187.5l-0,937.5l83.333,0l0,-937.5l-83.333,0Z" style="fill:#424242;"/><rect x="43.767" y="979.167" width="166.667" height="166.667" style="fill:#00524a;"/><rect x="85.434" y="1020.83" width="83.333" height="83.333" style="fill:#009687;"/><rect x="43.767" y="2166.67" width="166.667" height="166.667" style="fill:#00524a;"/><rect x="85.434" y="2208.33" width="83.333" height="83.333" style="fill:#009687;"/><g transform="matrix(4.16667,0,0,4.16667,-904.319,581.968)"><text x="275.765px" y="109.532px" style="font-family:'Raleway-Bold', 'Raleway', sans-serif;font-weight:700;font-size:24px;">F<tspan x="288.605px 297.269px 311.813px 326.189px 335.093px " y="109.532px 109.532px 109.532px 109.532px 109.532px ">ronte</tspan>nd</text><text x="275.765px" y="133.532px" style="font-family:'Raleway-Bold', 'Raleway', sans-serif;font-weight:700;font-size:24px;">De<tspan x="306.989px 319.733px " y="133.532px 133.532px ">ve</tspan>loper</text></g><g transform="matrix(4.16667,0,0,4.16667,-904.319,1769.47)"><text x="275.765px" y="109.532px" style="font-family:'Raleway-Bold', 'Raleway', sans-serif;font-weight:700;font-size:24px;">Back<tspan x="332.141px " y="109.532px ">e</tspan>nd</text><text x="275.765px" y="133.532px" style="font-family:'Raleway-Bold', 'Raleway', sans-serif;font-weight:700;font-size:24px;">De<tspan x="306.989px 319.733px " y="133.532px 133.532px ">ve</tspan>loper</text></g><path d="M168.767,2417.65l-40.682,40.682l-1.969,0l-40.682,-40.682l-0,-42.651l83.333,0l0,42.651Z" style="fill:#424242;"/></svg>