<?xml version="1.0" encoding="UTF-8" standalone="no"?><!DOCTYPE svg PUBLIC "-//W3C//DTD SVG 1.1//EN" "http://www.w3.org/Graphics/SVG/1.1/DTD/svg11.dtd"><svg width="100%" height="100%" viewBox="0 0 748 187" version="1.1" xmlns="http://www.w3.org/2000/svg" xmlns:xlink="http://www.w3.org/1999/xlink" xml:space="preserve" xmlns:serif="http://www.serif.com/" style="fill-rule:evenodd;clip-rule:evenodd;stroke-linejoin:round;stroke-miterlimit:2;"><rect x="-0" y="28.037" width="271.028" height="18.692" style="fill:#424242;"/><rect x="327.103" y="28.037" width="261.682" height="18.692" style="fill:#424242;"/><rect x="280.374" y="18.692" width="37.383" height="37.383" style="fill:#00524a;"/><rect x="289.758" y="28.037" width="18.692" height="18.692" style="fill:#009687;"/><rect x="598.131" y="18.692" width="37.383" height="37.383" style="fill:#00524a;"/><rect x="607.515" y="28.037" width="18.692" height="18.692" style="fill:#009687;"/><g transform="matrix(0.934579,0,0,0.934579,-15.4417,-3.26646)"><text x="258.413px" y="109.532px" style="font-family:'Raleway-Bold', 'Raleway', sans-serif;font-weight:700;font-size:35.667px;">F<tspan x="277.494px 290.37px 311.984px 333.348px 346.581px " y="109.532px 109.532px 109.532px 109.532px 109.532px ">ronte</tspan>nd</text><text x="246.75px" y="145.198px" style="font-family:'Raleway-Bold', 'Raleway', sans-serif;font-weight:700;font-size:35.667px;">De<tspan x="293.152px 312.091px " y="145.198px 145.198px ">ve</tspan>loper</text></g><g transform="matrix(0.934579,0,0,0.934579,302.315,-3.26646)"><text x="260.606px" y="109.532px" style="font-family:'Raleway-Bold', 'Raleway', sans-serif;font-weight:700;font-size:35.667px;">Back<tspan x="344.387px " y="109.532px ">e</tspan>nd</text><text x="246.75px" y="145.198px" style="font-family:'Raleway-Bold', 'Raleway', sans-serif;font-weight:700;font-size:35.667px;">De<tspan x="293.152px 312.091px " y="145.198px 145.198px ">ve</tspan>loper</text></g><rect x="644.86" y="28.037" width="65.421" height="18.692" style="fill:#e0e0e0;"/><rect x="719.626" y="28.037" width="18.692" height="18.692" style="fill:#e0e0e0;"/><path d="M644.86,46.729l-0,-18.692l28.258,0l9.125,9.125l-0,0.442l-9.125,9.125l-28.258,-0Z" style="fill:#424242;"/></svg>