<?xml version="1.0" encoding="UTF-8" standalone="no"?>
<!DOCTYPE svg PUBLIC "-//W3C//DTD SVG 1.1//EN" "http://www.w3.org/Graphics/SVG/1.1/DTD/svg11.dtd">
<svg width="100%" height="100%" viewBox="0 0 178 100" version="1.1" xmlns="http://www.w3.org/2000/svg" xmlns:xlink="http://www.w3.org/1999/xlink" xml:space="preserve" xmlns:serif="http://www.serif.com/" style="fill-rule:evenodd;clip-rule:evenodd;stroke-linejoin:round;stroke-miterlimit:2;">
    <g id="Hangman">
        <g transform="matrix(36,0,0,36,15.1433,36.5605)">
            <path d="M0.029,0C0.07,-0.008 0.1,-0.031 0.121,-0.068L0.122,-0.072L0.122,-0.666L0.121,-0.669C0.1,-0.707 0.07,-0.73 0.029,-0.738L0.312,-0.738C0.268,-0.729 0.237,-0.706 0.22,-0.67L0.219,-0.666L0.219,-0.313L0.537,-0.313L0.537,-0.666L0.536,-0.669C0.515,-0.707 0.484,-0.73 0.444,-0.738L0.726,-0.738C0.682,-0.729 0.652,-0.706 0.634,-0.67L0.633,-0.666L0.633,-0.072L0.634,-0.068C0.652,-0.032 0.682,-0.009 0.726,0L0.444,0C0.484,-0.008 0.515,-0.031 0.536,-0.068L0.537,-0.072L0.537,-0.264L0.219,-0.264L0.219,-0.072L0.22,-0.068C0.237,-0.032 0.268,-0.009 0.312,0L0.029,0Z" style="fill:rgb(35,37,38);fill-rule:nonzero;"/>
        </g>
        <g transform="matrix(36,0,0,36,136.911,36.1211)">
            <path d="M0.085,-0.214C0.071,-0.26 0.063,-0.31 0.063,-0.363C0.063,-0.417 0.071,-0.468 0.085,-0.518C0.1,-0.568 0.119,-0.61 0.144,-0.642C0.169,-0.675 0.198,-0.701 0.231,-0.721C0.265,-0.74 0.299,-0.75 0.333,-0.75L0.338,-0.75C0.376,-0.75 0.411,-0.742 0.443,-0.725C0.465,-0.713 0.483,-0.701 0.496,-0.689L0.5,-0.688C0.532,-0.691 0.554,-0.712 0.564,-0.75L0.564,-0.468C0.547,-0.535 0.527,-0.587 0.504,-0.625C0.493,-0.642 0.479,-0.657 0.462,-0.669C0.435,-0.689 0.404,-0.699 0.367,-0.699C0.329,-0.699 0.292,-0.685 0.256,-0.656C0.228,-0.629 0.205,-0.586 0.189,-0.529C0.174,-0.476 0.167,-0.423 0.167,-0.372L0.167,-0.365C0.167,-0.314 0.172,-0.268 0.183,-0.227C0.201,-0.157 0.222,-0.11 0.243,-0.087C0.273,-0.055 0.306,-0.039 0.342,-0.039C0.372,-0.039 0.403,-0.053 0.433,-0.081C0.466,-0.117 0.485,-0.15 0.49,-0.181C0.492,-0.19 0.493,-0.199 0.493,-0.207C0.493,-0.224 0.49,-0.238 0.483,-0.249L0.481,-0.252C0.457,-0.287 0.415,-0.307 0.356,-0.313L0.61,-0.313C0.607,-0.279 0.601,-0.246 0.591,-0.215C0.576,-0.169 0.557,-0.129 0.532,-0.096C0.508,-0.064 0.479,-0.037 0.444,-0.018C0.41,0.002 0.375,0.012 0.338,0.012C0.301,0.012 0.265,0.002 0.231,-0.017C0.198,-0.037 0.168,-0.063 0.144,-0.096C0.119,-0.129 0.099,-0.169 0.085,-0.214Z" style="fill:rgb(35,37,38);fill-rule:nonzero;"/>
        </g>
        <g transform="matrix(36,0,0,36,77.2884,79.3015)">
            <path d="M-0.034,0C0.006,-0.008 0.036,-0.031 0.057,-0.068L0.059,-0.072L0.32,-0.757L0.586,-0.072L0.588,-0.066C0.609,-0.03 0.639,-0.008 0.679,0L0.396,0C0.459,-0.018 0.49,-0.038 0.49,-0.061C0.49,-0.063 0.489,-0.065 0.489,-0.068L0.487,-0.072L0.413,-0.264L0.188,-0.264L0.116,-0.072L0.114,-0.067C0.114,-0.065 0.113,-0.063 0.113,-0.061C0.113,-0.041 0.144,-0.021 0.207,0L-0.034,0ZM0.206,-0.313L0.394,-0.313L0.299,-0.571L0.206,-0.313Z" style="fill:rgb(35,37,38);fill-rule:nonzero;"/>
        </g>
        <path d="M51.29,41.561L86.39,41.561L86.39,44.651L83.3,47.741L54.38,47.741L51.29,44.651L51.29,41.561Z" style="fill:rgb(53,63,64);"/>
        <g transform="matrix(1,0,0,1,40.1,-7.10543e-15)">
            <path d="M51.29,41.561L86.39,41.561L86.39,44.651L83.3,47.741L54.38,47.741L51.29,44.651L51.29,41.561Z" style="fill:rgb(53,63,64);"/>
        </g>
        <g transform="matrix(1,0,0,1,-20.2202,42.741)">
            <path d="M51.29,41.561L86.39,41.561L86.39,44.651L83.3,47.741L54.38,47.741L51.29,44.651L51.29,41.561Z" style="fill:rgb(53,63,64);"/>
        </g>
        <g transform="matrix(1,0,0,1,60.15,42.741)">
            <path d="M51.29,41.561L86.39,41.561L86.39,44.651L83.3,47.741L54.38,47.741L51.29,44.651L51.29,41.561Z" style="fill:rgb(53,63,64);"/>
        </g>
    </g>
</svg>
