<?xml version="1.0" encoding="UTF-8" standalone="no"?>
<!DOCTYPE svg PUBLIC "-//W3C//DTD SVG 1.1//EN" "http://www.w3.org/Graphics/SVG/1.1/DTD/svg11.dtd">
<svg width="100%" height="100%" viewBox="0 0 178 100" version="1.1" xmlns="http://www.w3.org/2000/svg" xmlns:xlink="http://www.w3.org/1999/xlink" xml:space="preserve" xmlns:serif="http://www.serif.com/" style="fill-rule:evenodd;clip-rule:evenodd;stroke-linejoin:round;stroke-miterlimit:2;">
    <g id="Slotmachine">
        <g transform="matrix(4.19881,0,0,1.07141,-1.45345,-11.4762)">
            <path d="M35.21,16.662C35.21,15.117 34.89,13.862 34.496,13.862L8.537,13.862C8.143,13.862 7.823,15.117 7.823,16.662L7.823,25.062C7.823,26.608 8.143,27.862 8.537,27.862L34.496,27.862C34.89,27.862 35.21,26.608 35.21,25.062L35.21,16.662Z" style="fill:rgb(73,17,28);"/>
        </g>
        <g transform="matrix(4.19881,0,0,1.07141,-1.45345,66.7724)">
            <path d="M35.21,16.662C35.21,15.117 34.89,13.862 34.496,13.862L8.537,13.862C8.143,13.862 7.823,15.117 7.823,16.662L7.823,25.062C7.823,26.608 8.143,27.862 8.537,27.862L34.496,27.862C34.89,27.862 35.21,26.608 35.21,25.062L35.21,16.662Z" style="fill:rgb(73,17,28);"/>
        </g>
        <g transform="matrix(1.6931,0,0,1.18301,-26.8373,-9.30266)">
            <path d="M52.904,32.922C52.904,29.997 51.245,27.623 49.202,27.623L38.095,27.623C36.052,27.623 34.393,29.997 34.393,32.922L34.393,67.336C34.393,70.26 36.052,72.634 38.095,72.634L49.202,72.634C51.245,72.634 52.904,70.26 52.904,67.336L52.904,32.922Z" style="fill:rgb(131,34,50);"/>
        </g>
        <g transform="matrix(1.58277,0,0,1.13749,-22.022,-7.02116)">
            <path d="M52.904,32.775C52.904,29.932 51.245,27.623 49.202,27.623L38.095,27.623C36.052,27.623 34.393,29.932 34.393,32.775L34.393,67.483C34.393,70.326 36.052,72.634 38.095,72.634L49.202,72.634C51.245,72.634 52.904,70.326 52.904,67.483L52.904,32.775Z" style="fill:white;"/>
        </g>
        <g transform="matrix(1.6931,0,0,1.18301,14.989,-9.30266)">
            <path d="M52.904,32.922C52.904,29.997 51.245,27.623 49.202,27.623L38.095,27.623C36.052,27.623 34.393,29.997 34.393,32.922L34.393,67.336C34.393,70.26 36.052,72.634 38.095,72.634L49.202,72.634C51.245,72.634 52.904,70.26 52.904,67.336L52.904,32.922Z" style="fill:rgb(131,34,50);"/>
        </g>
        <g transform="matrix(1.58277,0,0,1.13749,19.8043,-7.02116)">
            <path d="M52.904,32.775C52.904,29.932 51.245,27.623 49.202,27.623L38.095,27.623C36.052,27.623 34.393,29.932 34.393,32.775L34.393,67.483C34.393,70.326 36.052,72.634 38.095,72.634L49.202,72.634C51.245,72.634 52.904,70.326 52.904,67.483L52.904,32.775Z" style="fill:white;"/>
        </g>
        <g transform="matrix(1.6931,0,0,1.18301,56.8152,-9.30266)">
            <path d="M52.904,32.922C52.904,29.997 51.245,27.623 49.202,27.623L38.095,27.623C36.052,27.623 34.393,29.997 34.393,32.922L34.393,67.336C34.393,70.26 36.052,72.634 38.095,72.634L49.202,72.634C51.245,72.634 52.904,70.26 52.904,67.336L52.904,32.922Z" style="fill:rgb(131,34,50);"/>
        </g>
        <g transform="matrix(1.58277,0,0,1.13749,61.6306,-7.02116)">
            <path d="M52.904,32.775C52.904,29.932 51.245,27.623 49.202,27.623L38.095,27.623C36.052,27.623 34.393,29.932 34.393,32.775L34.393,67.483C34.393,70.326 36.052,72.634 38.095,72.634L49.202,72.634C51.245,72.634 52.904,70.326 52.904,67.483L52.904,32.775Z" style="fill:white;"/>
        </g>
        <g transform="matrix(4.43449,0,0,4.43449,17.9384,-20.9509)">
            <g transform="matrix(0.186846,0,0,0.186846,3.57735,13.0134)">
                <path d="M16.003,31.987L0,8.024L32.006,8.024L16.003,31.987ZM32,8.024L0,8.024L9.709,0L22.291,0L32,8.024Z" style="fill:rgb(132,143,255);"/>
            </g>
            <g transform="matrix(-0.713658,0.000452082,-0.000335434,-0.529517,27.2617,28.3313)">
                <path d="M28.989,17.666L30.628,26.126L27.351,26.126L28.989,17.666Z" style="fill:rgb(60,71,185);"/>
            </g>
            <g transform="matrix(0.63049,0,0,0.521284,1.31399,10.6142)">
                <path d="M13.07,7.479L3.585,7.479L5.957,4.602L10.699,4.602L13.07,7.479Z" style="fill:rgb(60,71,185);"/>
            </g>
            <g transform="matrix(0.341124,0,0,0.286774,0.882061,12.3186)">
                <path d="M16.657,2.423L20.084,7.651L13.23,7.651L16.657,2.423Z" style="fill:rgb(132,143,255);"/>
            </g>
            <g transform="matrix(-0.218548,-2.67645e-17,3.51993e-17,-0.287424,9.45883,15.2091)">
                <path d="M18.595,2.423L20.084,7.651L13.23,7.651L18.595,2.423Z" style="fill:rgb(181,188,255);"/>
            </g>
            <g transform="matrix(0.218548,-1.63924e-17,-5.21184e-17,-0.287424,3.67034,15.2108)">
                <path d="M18.59,2.423L20.084,7.651L13.23,7.651L18.59,2.423Z" style="fill:rgb(181,188,255);"/>
            </g>
        </g>
        <g transform="matrix(4.43449,0,0,4.43449,59.7737,-20.9519)">
            <g transform="matrix(0.186846,0,0,0.186846,3.57735,13.0134)">
                <path d="M16.003,31.987L0,8.024L32.006,8.024L16.003,31.987ZM32,8.024L0,8.024L9.709,0L22.291,0L32,8.024Z" style="fill:rgb(132,143,255);"/>
            </g>
            <g transform="matrix(-0.713658,0.000452082,-0.000335434,-0.529517,27.2617,28.3313)">
                <path d="M28.989,17.666L30.628,26.126L27.351,26.126L28.989,17.666Z" style="fill:rgb(60,71,185);"/>
            </g>
            <g transform="matrix(0.63049,0,0,0.521284,1.31399,10.6142)">
                <path d="M13.07,7.479L3.585,7.479L5.957,4.602L10.699,4.602L13.07,7.479Z" style="fill:rgb(60,71,185);"/>
            </g>
            <g transform="matrix(0.341124,0,0,0.286774,0.882061,12.3186)">
                <path d="M16.657,2.423L20.084,7.651L13.23,7.651L16.657,2.423Z" style="fill:rgb(132,143,255);"/>
            </g>
            <g transform="matrix(-0.218548,-2.67645e-17,3.51993e-17,-0.287424,9.45883,15.2091)">
                <path d="M18.595,2.423L20.084,7.651L13.23,7.651L18.595,2.423Z" style="fill:rgb(181,188,255);"/>
            </g>
            <g transform="matrix(0.218548,-1.63924e-17,-5.21184e-17,-0.287424,3.67034,15.2108)">
                <path d="M18.59,2.423L20.084,7.651L13.23,7.651L18.59,2.423Z" style="fill:rgb(181,188,255);"/>
            </g>
        </g>
        <g transform="matrix(4.43449,0,0,4.43449,101.6,-20.9519)">
            <g transform="matrix(0.186846,0,0,0.186846,3.57735,13.0134)">
                <path d="M16.003,31.987L0,8.024L32.006,8.024L16.003,31.987ZM32,8.024L0,8.024L9.709,0L22.291,0L32,8.024Z" style="fill:rgb(132,143,255);"/>
            </g>
            <g transform="matrix(-0.713658,0.000452082,-0.000335434,-0.529517,27.2617,28.3313)">
                <path d="M28.989,17.666L30.628,26.126L27.351,26.126L28.989,17.666Z" style="fill:rgb(60,71,185);"/>
            </g>
            <g transform="matrix(0.63049,0,0,0.521284,1.31399,10.6142)">
                <path d="M13.07,7.479L3.585,7.479L5.957,4.602L10.699,4.602L13.07,7.479Z" style="fill:rgb(60,71,185);"/>
            </g>
            <g transform="matrix(0.341124,0,0,0.286774,0.882061,12.3186)">
                <path d="M16.657,2.423L20.084,7.651L13.23,7.651L16.657,2.423Z" style="fill:rgb(132,143,255);"/>
            </g>
            <g transform="matrix(-0.218548,-2.67645e-17,3.51993e-17,-0.287424,9.45883,15.2091)">
                <path d="M18.595,2.423L20.084,7.651L13.23,7.651L18.595,2.423Z" style="fill:rgb(181,188,255);"/>
            </g>
            <g transform="matrix(0.218548,-1.63924e-17,-5.21184e-17,-0.287424,3.67034,15.2108)">
                <path d="M18.59,2.423L20.084,7.651L13.23,7.651L18.59,2.423Z" style="fill:rgb(181,188,255);"/>
            </g>
        </g>
    </g>
</svg>
