<?xml version="1.0" encoding="UTF-8" standalone="no"?>
<!DOCTYPE svg PUBLIC "-//W3C//DTD SVG 1.1//EN" "http://www.w3.org/Graphics/SVG/1.1/DTD/svg11.dtd">
<svg width="100%" height="100%" viewBox="0 0 178 100" version="1.1" xmlns="http://www.w3.org/2000/svg" xmlns:xlink="http://www.w3.org/1999/xlink" xml:space="preserve" xmlns:serif="http://www.serif.com/" style="fill-rule:evenodd;clip-rule:evenodd;stroke-linejoin:round;stroke-miterlimit:2;">
    <g id="Template">
        <g transform="matrix(3.52698,0,0,1.05761,-92.9866,-3.04114)">
            <path d="M62.2,14.695C62.2,10.781 61.247,7.603 60.073,7.603L43.061,7.603C41.888,7.603 40.935,10.781 40.935,14.695L40.935,85.61C40.935,89.524 41.888,92.701 43.061,92.701L60.073,92.701C61.247,92.701 62.2,89.524 62.2,85.61L62.2,14.695Z" style="fill:rgb(66,66,66);"/>
        </g>
        <g transform="matrix(1,0,0,1,-0.0356549,20.6629)">
            <g transform="matrix(30,0,0,30,67.3558,39.0857)">
                <path d="M0.129,-0.314L0.435,-0.191L0.435,-0.095L0.035,-0.28L0.035,-0.352L0.435,-0.536L0.435,-0.44L0.129,-0.314Z" style="fill:rgb(224,224,224);fill-rule:nonzero;"/>
            </g>
            <g transform="matrix(30,0,0,30,82.6049,39.0857)">
                <path d="M0.086,0.061L0.009,0.061L0.306,-0.711L0.383,-0.711L0.086,0.061Z" style="fill:rgb(224,224,224);fill-rule:nonzero;"/>
            </g>
            <g transform="matrix(30,0,0,30,94.9681,39.0857)">
                <path d="M0.388,-0.317L0.065,-0.444L0.065,-0.537L0.482,-0.352L0.482,-0.281L0.065,-0.096L0.065,-0.189L0.388,-0.317Z" style="fill:rgb(224,224,224);fill-rule:nonzero;"/>
            </g>
        </g>
    </g>
</svg>
