<?xml version="1.0" encoding="UTF-8" standalone="no"?>
<!DOCTYPE svg PUBLIC "-//W3C//DTD SVG 1.1//EN" "http://www.w3.org/Graphics/SVG/1.1/DTD/svg11.dtd">
<svg width="100%" height="100%" viewBox="0 0 178 100" version="1.1" xmlns="http://www.w3.org/2000/svg" xmlns:xlink="http://www.w3.org/1999/xlink" xml:space="preserve" xmlns:serif="http://www.serif.com/" style="fill-rule:evenodd;clip-rule:evenodd;stroke-linejoin:round;stroke-miterlimit:2;">
    <g id="ToDoList">
        <g transform="matrix(1,0,0,1,14.9129,10.0866)">
            <g transform="matrix(36,0,0,36,78.6551,52.5134)">
                <path d="M0.297,0.01C0.259,0.01 0.224,0.003 0.193,-0.012C0.162,-0.026 0.134,-0.045 0.112,-0.07C0.089,-0.095 0.071,-0.123 0.058,-0.156C0.045,-0.189 0.039,-0.223 0.039,-0.259C0.039,-0.296 0.046,-0.33 0.059,-0.363C0.071,-0.396 0.09,-0.424 0.113,-0.449C0.135,-0.474 0.163,-0.493 0.194,-0.508C0.225,-0.523 0.26,-0.53 0.297,-0.53C0.334,-0.53 0.369,-0.523 0.401,-0.508C0.432,-0.493 0.46,-0.474 0.483,-0.449C0.505,-0.424 0.524,-0.396 0.537,-0.363C0.55,-0.33 0.556,-0.296 0.556,-0.259C0.556,-0.223 0.55,-0.189 0.537,-0.156C0.524,-0.123 0.507,-0.095 0.484,-0.07C0.46,-0.045 0.433,-0.026 0.402,-0.012C0.37,0.003 0.335,0.01 0.297,0.01ZM0.108,-0.258C0.108,-0.229 0.113,-0.202 0.123,-0.177C0.133,-0.152 0.147,-0.13 0.164,-0.111C0.181,-0.092 0.201,-0.077 0.224,-0.066C0.247,-0.055 0.271,-0.05 0.297,-0.05C0.323,-0.05 0.347,-0.056 0.371,-0.067C0.394,-0.078 0.414,-0.093 0.431,-0.112C0.448,-0.131 0.462,-0.153 0.472,-0.178C0.482,-0.203 0.487,-0.231 0.487,-0.26C0.487,-0.289 0.482,-0.316 0.472,-0.342C0.462,-0.367 0.448,-0.39 0.431,-0.409C0.414,-0.428 0.394,-0.443 0.371,-0.454C0.347,-0.464 0.323,-0.47 0.297,-0.47C0.271,-0.47 0.247,-0.464 0.224,-0.454C0.201,-0.443 0.181,-0.427 0.164,-0.408C0.147,-0.389 0.133,-0.366 0.123,-0.341C0.113,-0.315 0.108,-0.287 0.108,-0.258Z" style="fill:rgb(0,51,77);fill-rule:nonzero;"/>
            </g>
            <g transform="matrix(36,0,0,36,109.255,52.5134)">
                <path d="M0.089,0L0.089,-0.71L0.33,-0.71C0.387,-0.71 0.436,-0.701 0.479,-0.682C0.521,-0.663 0.556,-0.638 0.585,-0.606C0.613,-0.574 0.634,-0.537 0.649,-0.494C0.663,-0.45 0.67,-0.405 0.67,-0.356C0.67,-0.302 0.662,-0.253 0.646,-0.21C0.63,-0.166 0.607,-0.129 0.578,-0.098C0.548,-0.067 0.512,-0.043 0.471,-0.026C0.429,-0.009 0.382,0 0.33,0L0.089,0ZM0.6,-0.356C0.6,-0.399 0.594,-0.438 0.582,-0.474C0.57,-0.509 0.553,-0.54 0.53,-0.566C0.506,-0.592 0.478,-0.612 0.445,-0.627C0.412,-0.641 0.373,-0.648 0.33,-0.648L0.159,-0.648L0.159,-0.062L0.33,-0.062C0.374,-0.062 0.413,-0.07 0.447,-0.085C0.48,-0.099 0.508,-0.12 0.531,-0.147C0.554,-0.173 0.571,-0.204 0.583,-0.24C0.594,-0.275 0.6,-0.314 0.6,-0.356Z" style="fill:rgb(0,51,77);fill-rule:nonzero;"/>
            </g>
            <g transform="matrix(36,0,0,36,134.995,52.5134)">
                <path d="M0.297,0.01C0.259,0.01 0.224,0.003 0.193,-0.012C0.162,-0.026 0.134,-0.045 0.112,-0.07C0.089,-0.095 0.071,-0.123 0.058,-0.156C0.045,-0.189 0.039,-0.223 0.039,-0.259C0.039,-0.296 0.046,-0.33 0.059,-0.363C0.071,-0.396 0.09,-0.424 0.113,-0.449C0.135,-0.474 0.163,-0.493 0.194,-0.508C0.225,-0.523 0.26,-0.53 0.297,-0.53C0.334,-0.53 0.369,-0.523 0.401,-0.508C0.432,-0.493 0.46,-0.474 0.483,-0.449C0.505,-0.424 0.524,-0.396 0.537,-0.363C0.55,-0.33 0.556,-0.296 0.556,-0.259C0.556,-0.223 0.55,-0.189 0.537,-0.156C0.524,-0.123 0.507,-0.095 0.484,-0.07C0.46,-0.045 0.433,-0.026 0.402,-0.012C0.37,0.003 0.335,0.01 0.297,0.01ZM0.108,-0.258C0.108,-0.229 0.113,-0.202 0.123,-0.177C0.133,-0.152 0.147,-0.13 0.164,-0.111C0.181,-0.092 0.201,-0.077 0.224,-0.066C0.247,-0.055 0.271,-0.05 0.297,-0.05C0.323,-0.05 0.347,-0.056 0.371,-0.067C0.394,-0.078 0.414,-0.093 0.431,-0.112C0.448,-0.131 0.462,-0.153 0.472,-0.178C0.482,-0.203 0.487,-0.231 0.487,-0.26C0.487,-0.289 0.482,-0.316 0.472,-0.342C0.462,-0.367 0.448,-0.39 0.431,-0.409C0.414,-0.428 0.394,-0.443 0.371,-0.454C0.347,-0.464 0.323,-0.47 0.297,-0.47C0.271,-0.47 0.247,-0.464 0.224,-0.454C0.201,-0.443 0.181,-0.427 0.164,-0.408C0.147,-0.389 0.133,-0.366 0.123,-0.341C0.113,-0.315 0.108,-0.287 0.108,-0.258Z" style="fill:rgb(0,51,77);fill-rule:nonzero;"/>
            </g>
        </g>
        <path d="M80.148,37.04L94.916,37.04L94.916,39.272L85.808,39.272L85.808,62.6L83.288,62.6L83.288,39.272L78.585,39.272L80.148,37.04Z" style="fill:rgb(0,51,77);fill-rule:nonzero;"/>
        <g transform="matrix(0.819152,0.573576,-0.573576,0.819152,42.7443,-24.251)">
            <path d="M23.045,90L23.045,80L53.045,80L53.045,10L63.045,10L63.045,90L23.045,90Z" style="fill:rgb(0,102,153);"/>
        </g>
    </g>
</svg>
