<?xml version="1.0" encoding="UTF-8" standalone="no"?><!DOCTYPE svg PUBLIC "-//W3C//DTD SVG 1.1//EN" "http://www.w3.org/Graphics/SVG/1.1/DTD/svg11.dtd"><svg width="100%" height="100%" viewBox="0 0 748 421" version="1.1" xmlns="http://www.w3.org/2000/svg" xmlns:xlink="http://www.w3.org/1999/xlink" xml:space="preserve" xmlns:serif="http://www.serif.com/" style="fill-rule:evenodd;clip-rule:evenodd;stroke-linejoin:round;stroke-miterlimit:2;"><g id="W"><path d="M249.369,411.656l-102.863,0l70.363,-193.321l102.863,0l-70.363,193.321Z" style="fill:#5f1c22;"/><path id="Shadow-1" serif:id="Shadow 1" d="M146.589,411.656l-0.083,0c0.014,-0.038 0.028,-0.077 0.042,-0.115l0.041,0.115Zm51.39,-141.423l1.995,-5.48l51.432,141.308l-1.995,5.48l-51.432,-141.308Zm121.74,-51.861l-0.013,-0.037l0.026,0l-0.013,0.037Z" style="fill:url(#_Linear1);"/><path id="Shadow-2" serif:id="Shadow 2" d="M146.589,411.656l-0.083,0c0.014,-0.038 0.028,-0.077 0.042,-0.115l0.041,0.115Zm70.266,-193.284l51.432,141.307l-1.994,5.48l-51.432,-141.308l1.994,-5.479Zm102.864,0l-0.013,-0.037l0.026,0l-0.013,0.037Z" style="fill:url(#_Linear2);"/><path d="M433.711,8.905l102.864,0l-146.59,402.751l-102.864,0l146.59,-402.751Z" style="fill:#5f1c22;"/><path id="Shadow-3" serif:id="Shadow 3" d="M287.205,411.656l-0.084,0c0.014,-0.038 0.028,-0.077 0.042,-0.115l0.042,0.115Zm51.39,-141.423l1.995,-5.48l51.432,141.308l-1.995,5.48l-51.432,-141.308Zm121.74,-51.861l-0.013,-0.037l0.026,0l-0.013,0.037Z" style="fill:url(#_Linear3);"/><path d="M0,8.905l102.864,0l146.589,402.751l-102.864,0l-146.589,-402.751Z" style="fill:#9b2d38;"/><path d="M390.069,411.656l-102.864,0l-70.363,-193.321l102.864,0l70.363,193.321Z" style="fill:#9b2d38;"/></g><g id="S"><path id="Shadow-11" serif:id="Shadow 1" d="M485.143,150.213l-1.995,5.48l-51.432,-141.308l1.995,-5.48l51.432,141.308Z" style="fill:url(#_Linear4);"/><path d="M504.074,202.225l102.864,0l70.363,-193.32l-102.864,0l-70.363,193.32Z" style="fill:#5f1c22;"/><path id="Shadow-21" serif:id="Shadow 2" d="M504.158,202.225l-0.084,0c0.014,-0.038 0.028,-0.076 0.042,-0.115l0.042,0.115Zm51.39,-141.423l1.994,-5.48l51.432,141.308l-1.994,5.48l-51.432,-141.308Zm121.739,-51.861l-0.013,-0.036l0.027,0l-0.014,0.036Z" style="fill:url(#_Linear5);"/><path id="Shadow-31" serif:id="Shadow 3" d="M504.158,202.225l-0.084,0c0.014,-0.038 0.028,-0.076 0.042,-0.115l0.042,0.115Zm70.266,-193.284l51.432,141.308l-1.995,5.48l-51.432,-141.308l1.995,-5.48Zm102.863,0l-0.013,-0.036l0.027,0l-0.014,0.036Z" style="fill:url(#_Linear6);"/><path d="M606.938,202.225l-102.864,0l-70.363,-193.32l102.864,0l70.363,193.32Z" style="fill:#9b2d38;"/><path d="M747.664,202.225l-102.864,0l-70.363,-193.32l102.864,0l70.363,193.32Z" style="fill:#9b2d38;"/></g><g id="R"><path d="M433.711,411.656l102.864,0l70.363,-193.321l-102.864,0l-70.363,193.321Z" style="fill:#00524a;"/><path id="Shadow-12" serif:id="Shadow 1" d="M433.795,411.656l-0.084,0c0.014,-0.038 0.028,-0.077 0.042,-0.115l0.042,0.115Zm70.266,-193.284l51.432,141.307l-1.995,5.48l-51.432,-141.308l1.995,-5.479Zm102.863,0l-0.013,-0.037l0.027,0l-0.014,0.037Z" style="fill:url(#_Linear7);"/><path d="M574.437,411.656l102.864,0l70.363,-193.321l-102.864,0l-70.363,193.321Z" style="fill:#00524a;"/><path id="Shadow-22" serif:id="Shadow 2" d="M625.869,270.348l1.994,-5.48l51.432,141.308l-1.994,5.48l-51.432,-141.308Z" style="fill:url(#_Linear8);"/><path d="M677.301,411.656l-102.864,0l-70.363,-193.321l102.864,0l70.363,193.321Z" style="fill:#009687;"/></g><defs><linearGradient id="_Linear1" x1="0" y1="0" x2="1" y2="0" gradientUnits="userSpaceOnUse" gradientTransform="matrix(3.52241,-1.28205,1.28205,3.52241,199.192,273.563)"><stop offset="0" style="stop-color:#4c161c;stop-opacity:1"/><stop offset="1" style="stop-color:#5f1c22;stop-opacity:1"/></linearGradient><linearGradient id="_Linear2" x1="0" y1="0" x2="1" y2="0" gradientUnits="userSpaceOnUse" gradientTransform="matrix(-3.52241,1.28205,-1.28205,-3.52241,232.527,261.43)"><stop offset="0" style="stop-color:#4b161b;stop-opacity:1"/><stop offset="1" style="stop-color:#5f1c22;stop-opacity:1"/></linearGradient><linearGradient id="_Linear3" x1="0" y1="0" x2="1" y2="0" gradientUnits="userSpaceOnUse" gradientTransform="matrix(3.52241,-1.28205,1.28205,3.52241,339.807,273.563)"><stop offset="0" style="stop-color:#4c161c;stop-opacity:1"/><stop offset="1" style="stop-color:#5f1c22;stop-opacity:1"/></linearGradient><linearGradient id="_Linear4" x1="0" y1="0" x2="1" y2="0" gradientUnits="userSpaceOnUse" gradientTransform="matrix(-3.52241,1.28205,-1.28205,-3.52241,467.034,100.459)"><stop offset="0" style="stop-color:#4b161b;stop-opacity:1"/><stop offset="1" style="stop-color:#5f1c22;stop-opacity:1"/></linearGradient><linearGradient id="_Linear5" x1="0" y1="0" x2="1" y2="0" gradientUnits="userSpaceOnUse" gradientTransform="matrix(3.52241,-1.28205,1.28205,3.52241,556.76,64.1325)"><stop offset="0" style="stop-color:#4c161c;stop-opacity:1"/><stop offset="1" style="stop-color:#5f1c22;stop-opacity:1"/></linearGradient><linearGradient id="_Linear6" x1="0" y1="0" x2="1" y2="0" gradientUnits="userSpaceOnUse" gradientTransform="matrix(-3.52241,1.28205,-1.28205,-3.52241,590.096,51.9993)"><stop offset="0" style="stop-color:#4b161b;stop-opacity:1"/><stop offset="1" style="stop-color:#5f1c22;stop-opacity:1"/></linearGradient><linearGradient id="_Linear7" x1="0" y1="0" x2="1" y2="0" gradientUnits="userSpaceOnUse" gradientTransform="matrix(-3.52241,1.28205,-1.28205,-3.52241,519.733,261.43)"><stop offset="0" style="stop-color:#003832;stop-opacity:1"/><stop offset="1" style="stop-color:#00524a;stop-opacity:1"/></linearGradient><linearGradient id="_Linear8" x1="0" y1="0" x2="1" y2="0" gradientUnits="userSpaceOnUse" gradientTransform="matrix(3.52491,-1.27519,1.27519,3.52491,642.119,314.996)"><stop offset="0" style="stop-color:#003832;stop-opacity:1"/><stop offset="1" style="stop-color:#00524a;stop-opacity:1"/></linearGradient></defs></svg>