<?xml version="1.0" encoding="UTF-8" standalone="no"?>
<!DOCTYPE svg PUBLIC "-//W3C//DTD SVG 1.1//EN" "http://www.w3.org/Graphics/SVG/1.1/DTD/svg11.dtd">
<svg width="100%" height="100%" viewBox="0 0 32 32" version="1.1" xmlns="http://www.w3.org/2000/svg" xmlns:xlink="http://www.w3.org/1999/xlink" xml:space="preserve" xmlns:serif="http://www.serif.com/" style="fill-rule:evenodd;clip-rule:evenodd;stroke-linejoin:round;stroke-miterlimit:2;">
    <g transform="matrix(2.10547,0,0,4.7996,-10.9718,-105.731)">
        <path d="M5.945,27.403L18.767,27.403L18.767,28.108L18.766,28.108C18.767,28.111 18.767,28.114 18.767,28.117L18.767,28.12C18.761,28.371 16.976,28.601 14.213,28.674C10.826,28.762 7.245,28.581 6.22,28.269C6.044,28.215 5.955,28.161 5.945,28.108L5.945,27.403Z" style="fill:rgb(255,175,0);"/>
    </g>
    <g transform="matrix(1.85917,0,0,0.66545,-12.4841,1.36746)">
        <rect x="7.546" y="35.761" width="14.522" height="4.079" style="fill:rgb(255,175,0);"/>
    </g>
    <g transform="matrix(0.270666,0.187902,-0.927399,0.0553594,24.1141,21.6486)">
        <ellipse cx="14.577" cy="14.034" rx="14.445" ry="13.929" style="fill:rgb(255,192,0);"/>
    </g>
    <g transform="matrix(2.10547,0,0,4.7996,-10.0163,-109.912)">
        <path d="M5.945,27.403L18.767,27.403L18.767,28.108L18.766,28.108C18.767,28.111 18.767,28.114 18.767,28.117L18.767,28.12C18.761,28.371 16.976,28.601 14.213,28.674C10.826,28.762 7.245,28.581 6.22,28.269C6.044,28.215 5.955,28.161 5.945,28.108L5.945,27.403Z" style="fill:rgb(255,175,0);"/>
    </g>
    <g transform="matrix(1.85917,0,0,0.66545,-11.5286,-2.81407)">
        <rect x="7.546" y="35.761" width="14.522" height="4.079" style="fill:rgb(255,175,0);"/>
    </g>
    <g transform="matrix(0.270666,0.187902,-0.927399,0.0553594,25.0696,17.467)">
        <ellipse cx="14.577" cy="14.034" rx="14.445" ry="13.929" style="fill:rgb(255,192,0);"/>
    </g>
    <g transform="matrix(0.22425,0.155679,-0.768361,0.0458659,23.5143,18.07)">
        <ellipse cx="14.577" cy="14.034" rx="14.445" ry="13.929" style="fill:rgb(255,237,153);"/>
    </g>
    <g transform="matrix(2.10547,0,0,4.7996,-10.8276,-114.346)">
        <path d="M5.945,27.403L18.767,27.403L18.767,28.108L18.766,28.108C18.767,28.111 18.767,28.114 18.767,28.117L18.767,28.12C18.761,28.371 16.976,28.601 14.213,28.674C10.826,28.762 7.245,28.581 6.22,28.269C6.044,28.215 5.955,28.161 5.945,28.108L5.945,27.403Z" style="fill:rgb(255,175,0);"/>
    </g>
    <g transform="matrix(1.85917,0,0,0.66545,-12.3399,-7.24793)">
        <rect x="7.546" y="35.761" width="14.522" height="4.079" style="fill:rgb(255,175,0);"/>
    </g>
    <g transform="matrix(0.270666,0.187902,-0.927399,0.0553594,24.2583,13.0332)">
        <ellipse cx="14.577" cy="14.034" rx="14.445" ry="13.929" style="fill:rgb(255,192,0);"/>
    </g>
    <g transform="matrix(2.10547,0,0,4.7996,-8.95316,-118.564)">
        <path d="M5.945,27.403L18.767,27.403L18.767,28.108L18.766,28.108C18.767,28.111 18.767,28.114 18.767,28.117L18.767,28.12C18.761,28.371 16.976,28.601 14.213,28.674C10.826,28.762 7.245,28.581 6.22,28.269C6.044,28.215 5.955,28.161 5.945,28.108L5.945,27.403Z" style="fill:rgb(255,175,0);"/>
    </g>
    <g transform="matrix(1.85917,0,0,0.66545,-10.4654,-11.4655)">
        <rect x="7.546" y="35.761" width="14.522" height="4.079" style="fill:rgb(255,175,0);"/>
    </g>
    <g transform="matrix(0.270666,0.187902,-0.927399,0.0553594,26.1328,8.81558)">
        <ellipse cx="14.577" cy="14.034" rx="14.445" ry="13.929" style="fill:rgb(255,192,0);"/>
    </g>
    <g transform="matrix(2.10547,0,0,4.7996,-10.0163,-122.908)">
        <path d="M5.945,27.403L18.767,27.403L18.767,28.108L18.766,28.108C18.767,28.111 18.767,28.114 18.767,28.117L18.767,28.12C18.761,28.371 16.976,28.601 14.213,28.674C10.826,28.762 7.245,28.581 6.22,28.269C6.044,28.215 5.955,28.161 5.945,28.108L5.945,27.403Z" style="fill:rgb(255,175,0);"/>
    </g>
    <g transform="matrix(1.85917,0,0,0.66545,-11.5286,-15.8104)">
        <rect x="7.546" y="35.761" width="14.522" height="4.079" style="fill:rgb(255,175,0);"/>
    </g>
    <g transform="matrix(0.270666,0.187902,-0.927399,0.0553594,25.0696,4.47074)">
        <ellipse cx="14.577" cy="14.034" rx="14.445" ry="13.929" style="fill:rgb(255,192,0);"/>
    </g>
    <g transform="matrix(2.10547,0,0,4.7996,-11.2602,-127.323)">
        <path d="M5.945,27.403L18.767,27.403L18.767,28.108L18.766,28.108C18.767,28.111 18.767,28.114 18.767,28.117L18.767,28.12C18.761,28.371 16.976,28.601 14.213,28.674C10.826,28.762 7.245,28.581 6.22,28.269C6.044,28.215 5.955,28.161 5.945,28.108L5.945,27.403Z" style="fill:rgb(255,175,0);"/>
    </g>
    <g transform="matrix(1.85917,0,0,0.66545,-12.7725,-20.2251)">
        <rect x="7.546" y="35.761" width="14.522" height="4.079" style="fill:rgb(255,175,0);"/>
    </g>
    <g transform="matrix(0.270666,0.187902,-0.927399,0.0553594,23.8257,0.0559992)">
        <ellipse cx="14.577" cy="14.034" rx="14.445" ry="13.929" style="fill:rgb(255,192,0);"/>
    </g>
    <g transform="matrix(0.22425,0.155679,-0.768361,0.0458659,22.2704,0.658948)">
        <ellipse cx="14.577" cy="14.034" rx="14.445" ry="13.929" style="fill:rgb(255,237,153);"/>
    </g>
    <g transform="matrix(0.244355,0.169637,-0.807371,0.0481945,14.7599,-0.764979)">
        <g transform="matrix(20.8333,0,0,20.8333,17.6864,14.6774)">
            <path d="M0.418,-0.183C0.418,-0.213 0.407,-0.238 0.386,-0.259C0.365,-0.279 0.33,-0.298 0.28,-0.314C0.211,-0.336 0.16,-0.363 0.129,-0.397C0.097,-0.431 0.081,-0.474 0.081,-0.527C0.081,-0.58 0.097,-0.624 0.128,-0.658C0.159,-0.692 0.201,-0.713 0.256,-0.719L0.256,-0.826L0.329,-0.826L0.329,-0.719C0.383,-0.711 0.426,-0.688 0.456,-0.65C0.487,-0.611 0.502,-0.559 0.502,-0.492L0.412,-0.492C0.412,-0.538 0.401,-0.575 0.379,-0.602C0.358,-0.629 0.328,-0.642 0.291,-0.642C0.252,-0.642 0.223,-0.632 0.202,-0.612C0.182,-0.592 0.171,-0.564 0.171,-0.528C0.171,-0.495 0.182,-0.469 0.204,-0.449C0.226,-0.429 0.261,-0.411 0.311,-0.395C0.36,-0.379 0.399,-0.361 0.427,-0.342C0.455,-0.323 0.475,-0.3 0.489,-0.274C0.502,-0.249 0.508,-0.219 0.508,-0.184C0.508,-0.129 0.492,-0.085 0.459,-0.051C0.426,-0.018 0.379,0.002 0.32,0.008L0.32,0.102L0.248,0.102L0.248,0.008C0.187,0.003 0.14,-0.019 0.105,-0.056C0.071,-0.094 0.054,-0.145 0.054,-0.209L0.144,-0.209C0.144,-0.164 0.156,-0.129 0.18,-0.105C0.203,-0.081 0.237,-0.068 0.281,-0.068C0.323,-0.068 0.357,-0.079 0.381,-0.099C0.406,-0.12 0.418,-0.148 0.418,-0.183Z" style="fill:rgb(255,192,0);fill-rule:nonzero;"/>
        </g>
    </g>
</svg>
