<?xml version="1.0" encoding="UTF-8" standalone="no"?><!DOCTYPE svg PUBLIC "-//W3C//DTD SVG 1.1//EN" "http://www.w3.org/Graphics/SVG/1.1/DTD/svg11.dtd"><svg width="100%" height="100%" viewBox="0 0 32 32" version="1.1" xmlns="http://www.w3.org/2000/svg" xmlns:xlink="http://www.w3.org/1999/xlink" xml:space="preserve" xmlns:serif="http://www.serif.com/" style="fill-rule:evenodd;clip-rule:evenodd;stroke-linejoin:round;stroke-miterlimit:2;"><path d="M22.622,12.269l-0.84,0.555c-0.513,-0.759 -1.18,-1.36 -2.001,-1.801c-0.821,-0.442 -1.711,-0.663 -2.67,-0.663c-1.557,0 -2.886,0.551 -3.988,1.652c-1.101,1.102 -1.652,2.431 -1.652,3.988c0,1.557 0.551,2.886 1.652,3.988c1.102,1.101 2.431,1.652 3.988,1.652c0.959,0 1.849,-0.223 2.67,-0.67c0.821,-0.446 1.488,-1.049 2.001,-1.808l0.826,0.598c-0.608,0.892 -1.396,1.6 -2.364,2.122c-0.968,0.522 -2.013,0.783 -3.133,0.783c-0.902,0 -1.764,-0.176 -2.585,-0.527c-0.821,-0.351 -1.531,-0.826 -2.129,-1.424c-0.598,-0.598 -1.073,-1.308 -1.424,-2.129c-0.352,-0.821 -0.527,-1.683 -0.527,-2.585c0,-0.902 0.175,-1.764 0.527,-2.585c0.351,-0.821 0.826,-1.531 1.424,-2.129c0.598,-0.598 1.308,-1.073 2.129,-1.424c0.821,-0.351 1.683,-0.527 2.585,-0.527c1.13,0 2.179,0.263 3.147,0.79c0.969,0.527 1.757,1.242 2.364,2.144Zm1.695,-1.168l-0.854,0.555c-0.703,-1.025 -1.612,-1.839 -2.728,-2.442c-1.115,-0.603 -2.323,-0.904 -3.624,-0.904c-1.396,0 -2.682,0.344 -3.86,1.032c-1.177,0.688 -2.11,1.621 -2.798,2.799c-0.688,1.177 -1.033,2.463 -1.033,3.859c0,1.396 0.345,2.682 1.033,3.859c0.688,1.178 1.621,2.111 2.798,2.799c1.178,0.688 2.464,1.032 3.86,1.032c1.301,0 2.511,-0.303 3.631,-0.911c1.121,-0.608 2.032,-1.429 2.735,-2.464l0.84,0.584c-0.797,1.177 -1.83,2.108 -3.097,2.791c-1.268,0.684 -2.638,1.026 -4.109,1.026c-1.576,0 -3.034,-0.389 -4.372,-1.168c-1.339,-0.779 -2.398,-1.837 -3.176,-3.176c-0.779,-1.339 -1.168,-2.796 -1.168,-4.372c0,-1.576 0.389,-3.033 1.168,-4.372c0.778,-1.339 1.837,-2.397 3.176,-3.176c1.338,-0.779 2.796,-1.168 4.372,-1.168c1.471,0 2.841,0.342 4.109,1.026c1.267,0.683 2.3,1.614 3.097,2.791Zm1.709,-1.139l-0.854,0.555c-0.893,-1.31 -2.049,-2.347 -3.468,-3.112c-1.42,-0.764 -2.951,-1.146 -4.593,-1.146c-1.32,0 -2.583,0.256 -3.788,0.769c-1.206,0.513 -2.243,1.203 -3.112,2.072c-0.869,0.869 -1.56,1.906 -2.072,3.112c-0.513,1.206 -0.769,2.468 -0.769,3.788c0,1.32 0.256,2.582 0.769,3.788c0.512,1.206 1.203,2.243 2.072,3.112c0.869,0.869 1.906,1.559 3.112,2.072c1.205,0.513 2.468,0.769 3.788,0.769c1.652,0 3.185,-0.384 4.6,-1.153c1.415,-0.769 2.568,-1.809 3.461,-3.119l0.826,0.612c-0.988,1.443 -2.262,2.585 -3.824,3.425c-1.562,0.84 -3.25,1.261 -5.063,1.261c-1.947,0 -3.746,-0.482 -5.398,-1.446c-1.652,-0.964 -2.96,-2.271 -3.923,-3.923c-0.964,-1.652 -1.446,-3.452 -1.446,-5.398c0,-1.946 0.482,-3.746 1.446,-5.398c0.963,-1.652 2.271,-2.959 3.923,-3.923c1.652,-0.964 3.451,-1.446 5.398,-1.446c1.823,0 3.517,0.425 5.084,1.275c1.567,0.85 2.844,2.001 3.831,3.454Zm1.681,-1.168l-0.855,0.555c-1.082,-1.585 -2.48,-2.839 -4.194,-3.76c-1.714,-0.921 -3.563,-1.381 -5.547,-1.381c-1.595,0 -3.121,0.311 -4.579,0.933c-1.457,0.622 -2.713,1.46 -3.767,2.513c-1.054,1.054 -1.891,2.31 -2.513,3.767c-0.622,1.458 -0.933,2.984 -0.933,4.579c0,1.595 0.311,3.121 0.933,4.579c0.622,1.457 1.459,2.713 2.513,3.767c1.054,1.053 2.31,1.891 3.767,2.513c1.458,0.622 2.984,0.933 4.579,0.933c1.984,0 3.836,-0.465 5.554,-1.396c1.719,-0.93 3.119,-2.188 4.201,-3.774l0.826,0.627c-1.177,1.709 -2.696,3.064 -4.557,4.066c-1.861,1.002 -3.869,1.502 -6.024,1.502c-1.738,0 -3.397,-0.339 -4.978,-1.018c-1.58,-0.679 -2.943,-1.59 -4.087,-2.734c-1.144,-1.144 -2.055,-2.507 -2.734,-4.088c-0.679,-1.58 -1.019,-3.24 -1.019,-4.977c0,-1.737 0.34,-3.397 1.019,-4.977c0.679,-1.581 1.59,-2.944 2.734,-4.088c1.144,-1.144 2.507,-2.055 4.087,-2.734c1.581,-0.679 3.24,-1.018 4.978,-1.018c2.165,0 4.177,0.503 6.038,1.509c1.861,1.007 3.38,2.374 4.558,4.102Z" style="fill:#0a0908;fill-rule:nonzero;"/></svg>