<?xml version="1.0" encoding="UTF-8" standalone="no"?><!DOCTYPE svg PUBLIC "-//W3C//DTD SVG 1.1//EN" "http://www.w3.org/Graphics/SVG/1.1/DTD/svg11.dtd"><svg width="100%" height="100%" viewBox="0 0 32 32" version="1.1" xmlns="http://www.w3.org/2000/svg" xmlns:xlink="http://www.w3.org/1999/xlink" xml:space="preserve" xmlns:serif="http://www.serif.com/" style="fill-rule:evenodd;clip-rule:evenodd;stroke-linejoin:round;stroke-miterlimit:2;"><path d="M21.298,16.441l-1.026,-1.694l0,-10.539l1.026,0l0,12.233Zm2.051,3.361l-1.026,-1.723l0,-13.871l1.026,0l0,15.594Zm2.05,3.404l-1.025,-1.737l0,-17.261l1.025,0l0,18.998Zm-14.697,-7.647l1.026,1.694l0,10.539l-1.026,0l0,-12.233Zm-2.051,-3.361l1.026,1.723l0,13.871l-1.026,0l0,-15.594Zm-2.05,-3.404l1.025,1.737l0,17.261l-1.025,0l0,-18.998Zm0.356,-4.586l1.196,0l14.498,23.584l-1.196,0l-14.498,-23.584Zm2.421,0l1.21,0l14.484,23.584l-1.225,0l-14.469,-23.584Zm2.407,0l1.196,0l13.444,21.918l0,-21.918l1.025,0l0,23.584l-1.21,0l-14.455,-23.584Zm-6.21,1.666l0,21.918l-1.025,0l0,-23.584l1.225,0l14.455,23.584l-1.182,0l-13.473,-21.918Z" style="fill:#0a0908;fill-rule:nonzero;"/></svg>