<?xml version="1.0" encoding="UTF-8" standalone="no"?><!DOCTYPE svg PUBLIC "-//W3C//DTD SVG 1.1//EN" "http://www.w3.org/Graphics/SVG/1.1/DTD/svg11.dtd"><svg width="100%" height="100%" viewBox="0 0 32 32" version="1.1" xmlns="http://www.w3.org/2000/svg" xmlns:xlink="http://www.w3.org/1999/xlink" xml:space="preserve" xmlns:serif="http://www.serif.com/" style="fill-rule:evenodd;clip-rule:evenodd;stroke-linejoin:round;stroke-miterlimit:2;"><path d="M12.012,12.012c-1.101,1.102 -1.652,2.431 -1.652,3.988c0,1.557 0.551,2.886 1.652,3.988c1.102,1.101 2.431,1.652 3.988,1.652c1.557,0 2.886,-0.551 3.988,-1.652c1.101,-1.102 1.652,-2.431 1.652,-3.988c0,-1.557 -0.551,-2.886 -1.652,-3.988c-1.102,-1.101 -2.431,-1.652 -3.988,-1.652c-1.557,0 -2.886,0.551 -3.988,1.652Zm-2.15,6.58c-0.351,-0.826 -0.527,-1.69 -0.527,-2.592c0,-0.902 0.176,-1.764 0.527,-2.585c0.351,-0.821 0.826,-1.531 1.424,-2.129c0.598,-0.598 1.308,-1.073 2.129,-1.424c0.821,-0.351 1.683,-0.527 2.585,-0.527c0.902,0 1.764,0.176 2.585,0.527c0.821,0.351 1.531,0.826 2.129,1.424c0.598,0.598 1.073,1.308 1.424,2.129c0.351,0.821 0.527,1.683 0.527,2.585c0,0.902 -0.176,1.764 -0.527,2.585c-0.351,0.821 -0.826,1.531 -1.424,2.129c-0.598,0.598 -1.308,1.073 -2.129,1.424c-0.821,0.351 -1.683,0.527 -2.585,0.527c-0.902,0 -1.764,-0.176 -2.585,-0.527c-0.821,-0.351 -1.531,-0.826 -2.129,-1.424c-0.598,-0.598 -1.073,-1.306 -1.424,-2.122Zm-0.527,-6.451c-0.684,1.177 -1.025,2.463 -1.025,3.859c0,1.396 0.344,2.682 1.032,3.859c0.688,1.178 1.621,2.111 2.799,2.799c1.177,0.688 2.463,1.032 3.859,1.032c1.396,0 2.682,-0.344 3.859,-1.032c1.178,-0.688 2.111,-1.621 2.799,-2.799c0.688,-1.177 1.032,-2.463 1.032,-3.859c0,-1.396 -0.344,-2.682 -1.032,-3.859c-0.688,-1.178 -1.621,-2.111 -2.799,-2.799c-1.177,-0.688 -2.463,-1.032 -3.859,-1.032c-1.396,0 -2.682,0.344 -3.859,1.032c-1.178,0.688 -2.113,1.621 -2.806,2.799Zm-0.883,8.231c-0.779,-1.339 -1.168,-2.796 -1.168,-4.372c0,-1.576 0.389,-3.033 1.168,-4.372c0.779,-1.339 1.837,-2.397 3.176,-3.176c1.339,-0.779 2.796,-1.168 4.372,-1.168c1.576,0 3.033,0.389 4.372,1.168c1.339,0.779 2.397,1.837 3.176,3.176c0.779,1.339 1.168,2.796 1.168,4.372c0,1.576 -0.389,3.033 -1.168,4.372c-0.779,1.339 -1.837,2.397 -3.176,3.176c-1.339,0.779 -2.796,1.168 -4.372,1.168c-1.576,0 -3.033,-0.389 -4.372,-1.168c-1.339,-0.779 -2.397,-1.837 -3.176,-3.176Zm-1.424,-8.16c-0.513,1.206 -0.769,2.468 -0.769,3.788c0,1.32 0.256,2.582 0.769,3.788c0.513,1.206 1.203,2.243 2.072,3.112c0.869,0.869 1.906,1.559 3.112,2.072c1.206,0.513 2.468,0.769 3.788,0.769c1.32,0 2.582,-0.256 3.788,-0.769c1.206,-0.513 2.243,-1.203 3.112,-2.072c0.869,-0.869 1.559,-1.906 2.072,-3.112c0.513,-1.206 0.769,-2.468 0.769,-3.788c0,-1.32 -0.256,-2.582 -0.769,-3.788c-0.513,-1.206 -1.203,-2.243 -2.072,-3.112c-0.869,-0.869 -1.906,-1.559 -3.112,-2.072c-1.206,-0.513 -2.468,-0.769 -3.788,-0.769c-1.32,0 -2.582,0.256 -3.788,0.769c-1.206,0.513 -2.243,1.203 -3.112,2.072c-0.869,0.869 -1.559,1.906 -2.072,3.112Zm-0.356,9.186c-0.959,-1.652 -1.439,-3.452 -1.439,-5.398c0,-1.946 0.482,-3.746 1.446,-5.398c0.964,-1.652 2.271,-2.959 3.923,-3.923c1.652,-0.964 3.452,-1.446 5.398,-1.446c1.946,0 3.746,0.482 5.398,1.446c1.652,0.964 2.959,2.271 3.923,3.923c0.964,1.652 1.446,3.452 1.446,5.398c0,1.946 -0.482,3.746 -1.446,5.398c-0.964,1.652 -2.271,2.959 -3.923,3.923c-1.652,0.964 -3.452,1.446 -5.398,1.446c-1.946,0 -3.746,-0.482 -5.398,-1.446c-1.652,-0.964 -2.962,-2.271 -3.93,-3.923Zm-1.538,-9.97c-0.617,1.453 -0.926,2.977 -0.926,4.572c0,1.595 0.311,3.121 0.933,4.579c0.622,1.457 1.46,2.713 2.513,3.767c1.054,1.053 2.31,1.891 3.767,2.513c1.458,0.622 2.984,0.933 4.579,0.933c1.595,0 3.121,-0.311 4.579,-0.933c1.457,-0.622 2.713,-1.46 3.767,-2.513c1.053,-1.054 1.891,-2.31 2.513,-3.767c0.622,-1.458 0.933,-2.984 0.933,-4.579c0,-1.595 -0.311,-3.121 -0.933,-4.579c-0.622,-1.457 -1.46,-2.713 -2.513,-3.767c-1.054,-1.053 -2.31,-1.891 -3.767,-2.513c-1.458,-0.622 -2.984,-0.933 -4.579,-0.933c-1.595,0 -3.121,0.311 -4.579,0.933c-1.457,0.622 -2.713,1.46 -3.767,2.513c-1.053,1.054 -1.894,2.312 -2.52,3.774Zm-0.94,9.557c-0.674,-1.586 -1.011,-3.248 -1.011,-4.985c0,-1.737 0.339,-3.397 1.018,-4.977c0.679,-1.581 1.59,-2.944 2.734,-4.088c1.144,-1.144 2.507,-2.055 4.088,-2.734c1.58,-0.679 3.24,-1.018 4.977,-1.018c1.737,0 3.397,0.339 4.977,1.018c1.581,0.679 2.944,1.59 4.088,2.734c1.144,1.144 2.055,2.507 2.734,4.088c0.679,1.58 1.018,3.24 1.018,4.977c0,1.737 -0.339,3.397 -1.018,4.977c-0.679,1.581 -1.59,2.944 -2.734,4.088c-1.144,1.144 -2.507,2.055 -4.088,2.734c-1.58,0.679 -3.24,1.018 -4.977,1.018c-1.737,0 -3.397,-0.339 -4.977,-1.018c-1.581,-0.679 -2.944,-1.59 -4.088,-2.734c-1.144,-1.144 -2.058,-2.504 -2.741,-4.08Z" style="fill:#0a0908;fill-rule:nonzero;"/></svg>