<?xml version="1.0" encoding="UTF-8" standalone="no"?><!DOCTYPE svg PUBLIC "-//W3C//DTD SVG 1.1//EN" "http://www.w3.org/Graphics/SVG/1.1/DTD/svg11.dtd"><svg width="100%" height="100%" viewBox="0 0 32 32" version="1.1" xmlns="http://www.w3.org/2000/svg" xmlns:xlink="http://www.w3.org/1999/xlink" xml:space="preserve" xmlns:serif="http://www.serif.com/" style="fill-rule:evenodd;clip-rule:evenodd;stroke-linejoin:round;stroke-miterlimit:2;"><path d="M13.85,20.871l0.413,-1.026l3.503,0l0.413,1.026l-4.329,0Zm-0.798,2.05l0.399,-1.025l5.112,0l0.442,1.025l-5.953,0Zm-0.798,2.051l0.399,-1.025l6.722,0l0.427,1.025l-7.548,0Zm-8.331,2.82l-1.111,0l9.329,-23.584l1.11,0l9.314,23.584l-1.096,0l-8.773,-22.203l-8.773,22.203Zm8.901,-19.767l0.584,1.31l-7.292,18.457l-1.096,0l7.804,-19.767Zm1.139,2.706l0.542,1.41l-6.167,15.651l-1.111,0l6.736,-17.061Zm1.083,2.819l0.541,1.439l-5.056,12.803l-1.096,0l5.611,-14.242Zm14.142,14.242l-1.111,0l-9.314,-23.584l1.096,0l9.329,23.584Zm-11.536,-23.584l9.328,23.584l-1.096,0l-9.329,-23.584l1.097,0Zm-2.207,0l9.328,23.584l-1.111,0l-9.314,-23.584l1.097,0Z" style="fill:#0a0908;fill-rule:nonzero;"/></svg>