<?xml version="1.0" encoding="UTF-8" standalone="no"?>
<!DOCTYPE svg PUBLIC "-//W3C//DTD SVG 1.1//EN" "http://www.w3.org/Graphics/SVG/1.1/DTD/svg11.dtd">
<svg width="100%" height="100%" viewBox="0 0 32 32" version="1.1" xmlns="http://www.w3.org/2000/svg" xmlns:xlink="http://www.w3.org/1999/xlink" xml:space="preserve" xmlns:serif="http://www.serif.com/" style="fill-rule:evenodd;clip-rule:evenodd;stroke-linejoin:round;stroke-miterlimit:2;">
    <g transform="matrix(1.64791,0,0,1.72489,-8.14046,-7.12444)">
        <path d="M24.358,5.889C24.358,4.919 23.533,4.13 22.517,4.13L6.781,4.13C5.765,4.13 4.94,4.919 4.94,5.889L4.94,20.923C4.94,21.894 5.765,22.682 6.781,22.682L22.517,22.682C23.533,22.682 24.358,21.894 24.358,20.923L24.358,5.889Z" style="fill:rgb(131,34,50);"/>
    </g>
    <g transform="matrix(0.363984,0,0,0.647253,10.668,7.32272)">
        <path d="M24.358,5.166C24.358,4.594 23.533,4.13 22.517,4.13L6.781,4.13C5.765,4.13 4.94,4.594 4.94,5.166L4.94,21.647C4.94,22.218 5.765,22.682 6.781,22.682L22.517,22.682C23.533,22.682 24.358,22.218 24.358,21.647L24.358,5.166Z" style="fill:white;"/>
    </g>
    <g transform="matrix(0.363984,0,0,0.647253,1.2359,7.32272)">
        <path d="M24.358,5.166C24.358,4.594 23.533,4.13 22.517,4.13L6.781,4.13C5.765,4.13 4.94,4.594 4.94,5.166L4.94,21.647C4.94,22.218 5.765,22.682 6.781,22.682L22.517,22.682C23.533,22.682 24.358,22.218 24.358,21.647L24.358,5.166Z" style="fill:white;"/>
    </g>
    <g transform="matrix(0.363984,0,0,0.647253,20.1,7.32272)">
        <path d="M24.358,5.166C24.358,4.594 23.533,4.13 22.517,4.13L6.781,4.13C5.765,4.13 4.94,4.594 4.94,5.166L4.94,21.647C4.94,22.218 5.765,22.682 6.781,22.682L22.517,22.682C23.533,22.682 24.358,22.218 24.358,21.647L24.358,5.166Z" style="fill:white;"/>
    </g>
    <g transform="matrix(0.186846,0,0,0.186846,3.57735,13.0134)">
        <path d="M16.003,31.987L0,8.024L32.006,8.024L16.003,31.987ZM32,8.024L0,8.024L9.709,0L22.291,0L32,8.024Z" style="fill:rgb(132,143,255);"/>
    </g>
    <g transform="matrix(-0.713658,0.000452082,-0.000335434,-0.529517,27.2617,28.3313)">
        <path d="M28.989,17.666L30.628,26.126L27.351,26.126L28.989,17.666Z" style="fill:rgb(60,71,185);"/>
    </g>
    <g transform="matrix(0.63049,0,0,0.521284,1.31399,10.6142)">
        <path d="M13.07,7.479L3.585,7.479L5.957,4.602L10.699,4.602L13.07,7.479Z" style="fill:rgb(60,71,185);"/>
    </g>
    <g transform="matrix(0.341124,0,0,0.286774,0.882061,12.3186)">
        <path d="M16.657,2.423L20.084,7.651L13.23,7.651L16.657,2.423Z" style="fill:rgb(132,143,255);"/>
    </g>
    <g transform="matrix(-0.218548,-2.67645e-17,3.51993e-17,-0.287424,9.45883,15.2091)">
        <path d="M18.595,2.423L20.084,7.651L13.23,7.651L18.595,2.423Z" style="fill:rgb(181,188,255);"/>
    </g>
    <g transform="matrix(0.218548,-1.63924e-17,-5.21184e-17,-0.287424,3.67034,15.2108)">
        <path d="M18.59,2.423L20.084,7.651L13.23,7.651L18.59,2.423Z" style="fill:rgb(181,188,255);"/>
    </g>
    <g transform="matrix(0.186846,0,0,0.186846,22.4415,13.0134)">
        <path d="M16.003,31.987L0,8.024L32.006,8.024L16.003,31.987ZM32,8.024L0,8.024L9.709,0L22.291,0L32,8.024Z" style="fill:rgb(132,143,255);"/>
    </g>
    <g transform="matrix(-0.713658,0.000452082,-0.000335434,-0.529517,46.1259,28.3313)">
        <path d="M28.989,17.666L30.628,26.126L27.351,26.126L28.989,17.666Z" style="fill:rgb(60,71,185);"/>
    </g>
    <g transform="matrix(0.63049,0,0,0.521284,20.1781,10.6142)">
        <path d="M13.07,7.479L3.585,7.479L5.957,4.602L10.699,4.602L13.07,7.479Z" style="fill:rgb(60,71,185);"/>
    </g>
    <g transform="matrix(0.341124,0,0,0.286774,19.7462,12.3186)">
        <path d="M16.657,2.423L20.084,7.651L13.23,7.651L16.657,2.423Z" style="fill:rgb(132,143,255);"/>
    </g>
    <g transform="matrix(-0.218548,-2.67645e-17,3.51993e-17,-0.287424,28.323,15.2091)">
        <path d="M18.595,2.423L20.084,7.651L13.23,7.651L18.595,2.423Z" style="fill:rgb(181,188,255);"/>
    </g>
    <g transform="matrix(0.218548,-1.63924e-17,-5.21184e-17,-0.287424,22.5345,15.2108)">
        <path d="M18.59,2.423L20.084,7.651L13.23,7.651L18.59,2.423Z" style="fill:rgb(181,188,255);"/>
    </g>
    <g transform="matrix(1.33543,0,0,0.240425,-3.56293,23.5127)">
        <path d="M24.358,5.889C24.358,4.919 24.216,4.13 24.042,4.13L5.257,4.13C5.082,4.13 4.94,4.919 4.94,5.889L4.94,20.923C4.94,21.894 5.082,22.682 5.257,22.682L24.042,22.682C24.216,22.682 24.358,21.894 24.358,20.923L24.358,5.889Z" style="fill:rgb(73,17,28);"/>
    </g>
    <g transform="matrix(1.33543,0,0,0.240425,-3.56293,2.04089)">
        <path d="M24.358,5.889C24.358,4.919 24.216,4.13 24.042,4.13L5.257,4.13C5.082,4.13 4.94,4.919 4.94,5.889L4.94,20.923C4.94,21.894 5.082,22.682 5.257,22.682L24.042,22.682C24.216,22.682 24.358,21.894 24.358,20.923L24.358,5.889Z" style="fill:rgb(73,17,28);"/>
    </g>
    <g transform="matrix(0.186846,0,0,0.186846,13.0066,12.9977)">
        <path d="M16.003,31.987L0,8.024L32.006,8.024L16.003,31.987ZM32,8.024L0,8.024L9.709,0L22.291,0L32,8.024Z" style="fill:rgb(132,143,255);"/>
    </g>
    <g transform="matrix(-0.713658,0.000452082,-0.000335434,-0.529517,36.691,28.3156)">
        <path d="M28.989,17.666L30.628,26.126L27.351,26.126L28.989,17.666Z" style="fill:rgb(60,71,185);"/>
    </g>
    <g transform="matrix(0.63049,0,0,0.521284,10.7432,10.5985)">
        <path d="M13.07,7.479L3.585,7.479L5.957,4.602L10.699,4.602L13.07,7.479Z" style="fill:rgb(60,71,185);"/>
    </g>
    <g transform="matrix(0.341124,0,0,0.286774,10.3113,12.3029)">
        <path d="M16.657,2.423L20.084,7.651L13.23,7.651L16.657,2.423Z" style="fill:rgb(132,143,255);"/>
    </g>
    <g transform="matrix(-0.218548,-2.67645e-17,3.51993e-17,-0.287424,18.8881,15.1934)">
        <path d="M18.595,2.423L20.084,7.651L13.23,7.651L18.595,2.423Z" style="fill:rgb(181,188,255);"/>
    </g>
    <g transform="matrix(0.218548,-1.63924e-17,-5.21184e-17,-0.287424,13.0996,15.1951)">
        <path d="M18.59,2.423L20.084,7.651L13.23,7.651L18.59,2.423Z" style="fill:rgb(181,188,255);"/>
    </g>
</svg>
