<?xml version="1.0" encoding="UTF-8" standalone="no"?><!DOCTYPE svg PUBLIC "-//W3C//DTD SVG 1.1//EN" "http://www.w3.org/Graphics/SVG/1.1/DTD/svg11.dtd"><svg width="100%" height="100%" viewBox="0 0 134 134" version="1.1" xmlns="http://www.w3.org/2000/svg" xmlns:xlink="http://www.w3.org/1999/xlink" xml:space="preserve" xmlns:serif="http://www.serif.com/" style="fill-rule:evenodd;clip-rule:evenodd;stroke-linejoin:round;stroke-miterlimit:2;"><path d="M133.336,9.407c0,-5.191 -4.219,-9.404 -9.413,-9.404l-114.516,0c-5.194,0 -9.405,4.213 -9.405,9.404l0,114.517c0,5.198 4.211,9.411 9.405,9.411l114.516,0c5.194,0 9.413,-4.213 9.413,-9.411l0,-114.517Z" style="fill:#515770;"/><clipPath id="_clip1"><rect x="14.584" y="81.283" width="104.17" height="52.05"/></clipPath><g clip-path="url(#_clip1)"><path d="M118.754,88.626c0,-4.053 -3.29,-7.343 -7.348,-7.343l-89.481,0c-4.052,0 -7.341,3.29 -7.341,7.343l0,89.413c0,4.058 3.289,7.348 7.341,7.348l89.481,0c4.058,0 7.348,-3.29 7.348,-7.348l0,-89.413Z" style="fill:#c6c6c6;"/></g><clipPath id="_clip2"><rect x="14.584" y="0" width="104.17" height="52.054"/></clipPath><g clip-path="url(#_clip2)"><path d="M118.754,-44.708c0,-4.053 -3.29,-7.342 -7.348,-7.342l-89.481,0c-4.052,0 -7.341,3.289 -7.341,7.342l0,89.414c0,4.058 3.289,7.348 7.341,7.348l89.481,0c4.058,0 7.348,-3.29 7.348,-7.348l0,-89.414Z" style="fill:#383c4c;"/></g><clipPath id="_clip3"><rect x="66.668" y="0" width="44.74" height="44.709"/></clipPath><g clip-path="url(#_clip3)"><path d="M111.407,-56.24c0,-1.742 -1.415,-3.155 -3.158,-3.155l-38.426,0c-1.742,0 -3.155,1.413 -3.155,3.155l0,97.794c0,1.741 1.413,3.155 3.155,3.155l38.426,0c1.743,0 3.158,-1.414 3.158,-3.155l0,-97.794Z" style="fill:#c6c6c6;"/></g><path d="M105.009,6.959c0,-0.327 -0.265,-0.591 -0.593,-0.591l-7.212,0c-0.327,0 -0.592,0.264 -0.592,0.591l0,30.816c0,0.327 0.265,0.593 0.592,0.593l7.212,0c0.328,0 0.593,-0.266 0.593,-0.593l0,-30.816Z" style="fill:#383c4c;"/></svg>