<?xml version="1.0" encoding="UTF-8" standalone="no"?>
<!DOCTYPE svg PUBLIC "-//W3C//DTD SVG 1.1//EN" "http://www.w3.org/Graphics/SVG/1.1/DTD/svg11.dtd">
<svg width="100%" height="100%" viewBox="0 0 32 32" version="1.1" xmlns="http://www.w3.org/2000/svg" xmlns:xlink="http://www.w3.org/1999/xlink" xml:space="preserve" xmlns:serif="http://www.serif.com/" style="fill-rule:evenodd;clip-rule:evenodd;stroke-linejoin:round;stroke-miterlimit:2;">
    <g transform="matrix(1.36503,0,0,1.18057,8.6495,-2.00163)">
        <path d="M-3.903,23.427C-5.446,21.171 -6.336,18.329 -6.336,15.248C-6.336,7.768 -1.084,1.695 5.385,1.695C11.854,1.695 17.106,7.768 17.106,15.248C17.106,18.329 16.215,21.171 14.673,23.427C14.411,20.973 10.95,19.01 6.54,18.715C8.801,17.986 10.488,15.164 10.488,11.799C10.488,7.881 8.201,4.701 5.385,4.701C2.568,4.701 0.282,7.881 0.282,11.799C0.282,15.164 1.969,17.986 4.23,18.715C-0.18,19.01 -3.642,20.973 -3.903,23.427Z" style="fill:rgb(84,102,128);"/>
    </g>
    <g transform="matrix(0.796989,0,0,0.796989,3.24818,3.54766)">
        <path d="M0.092,27.739C0.54,24.105 6.469,21.196 14.022,20.759C10.15,19.68 7.26,15.5 7.26,10.515C7.26,4.712 11.176,0 16,0C20.824,0 24.74,4.712 24.74,10.515C24.74,15.5 21.85,19.68 17.978,20.759C25.531,21.196 31.46,24.105 31.908,27.739C28.333,32.559 22.585,35.663 16,35.7C9.473,35.665 3.702,32.57 0.092,27.739Z" style="fill:rgb(235,235,235);"/>
    </g>
</svg>
