<?xml version="1.0" encoding="UTF-8" standalone="no"?>
<!DOCTYPE svg PUBLIC "-//W3C//DTD SVG 1.1//EN" "http://www.w3.org/Graphics/SVG/1.1/DTD/svg11.dtd">
<svg width="100%" height="100%" viewBox="0 0 32 32" version="1.1" xmlns="http://www.w3.org/2000/svg" xmlns:xlink="http://www.w3.org/1999/xlink" xml:space="preserve" xmlns:serif="http://www.serif.com/" style="fill-rule:evenodd;clip-rule:evenodd;stroke-linejoin:round;stroke-miterlimit:2;">
    <g transform="matrix(0.930888,0,0,0.919283,2.21158,2.58294)">
        <rect x="-2.376" y="-2.81" width="34.376" height="34.81" style="fill:url(#_Radial1);"/>
    </g>
    <g transform="matrix(1.00312,0,0,0.185054,3.81423,3.60015)">
        <path d="M23.114,23.8C23.114,20.778 22.661,18.325 22.104,18.325L10.167,18.325C9.61,18.325 9.157,20.778 9.157,23.8C9.157,26.822 9.61,29.275 10.167,29.275L22.104,29.275C22.661,29.275 23.114,26.822 23.114,23.8Z" style="fill:rgb(21,95,132);"/>
    </g>
    <g transform="matrix(1.00312,0,0,0.185054,3.81423,11.5957)">
        <path d="M23.114,23.8C23.114,20.778 22.661,18.325 22.104,18.325L10.167,18.325C9.61,18.325 9.157,20.778 9.157,23.8C9.157,26.822 9.61,29.275 10.167,29.275L22.104,29.275C22.661,29.275 23.114,26.822 23.114,23.8Z" style="fill:rgb(21,95,132);"/>
    </g>
    <g transform="matrix(1.00312,0,0,0.185054,3.81423,19.5913)">
        <path d="M23.114,23.8C23.114,20.778 22.661,18.325 22.104,18.325L10.167,18.325C9.61,18.325 9.157,20.778 9.157,23.8C9.157,26.822 9.61,29.275 10.167,29.275L22.104,29.275C22.661,29.275 23.114,26.822 23.114,23.8Z" style="fill:rgb(21,95,132);"/>
    </g>
    <g transform="matrix(0.850708,0,0,0.865658,-2.26189,-8.85053)">
        <path d="M12.068,16C14.017,16 15.6,17.555 15.6,19.471C15.6,21.386 14.017,22.941 12.068,22.941C10.119,22.941 8.536,21.386 8.536,19.471C8.536,17.555 10.119,16 12.068,16ZM12.068,16.344C13.824,16.344 15.249,17.745 15.249,19.471C15.249,21.196 13.824,22.597 12.068,22.597C10.312,22.597 8.886,21.196 8.886,19.471C8.886,17.745 10.312,16.344 12.068,16.344Z" style="fill:rgb(21,95,132);"/>
    </g>
    <g transform="matrix(0.850708,0,0,0.865658,-2.26189,-0.854964)">
        <path d="M12.068,16C14.017,16 15.6,17.555 15.6,19.471C15.6,21.386 14.017,22.941 12.068,22.941C10.119,22.941 8.536,21.386 8.536,19.471C8.536,17.555 10.119,16 12.068,16ZM12.068,16.344C13.824,16.344 15.249,17.745 15.249,19.471C15.249,21.196 13.824,22.597 12.068,22.597C10.312,22.597 8.886,21.196 8.886,19.471C8.886,17.745 10.312,16.344 12.068,16.344Z" style="fill:rgb(21,95,132);"/>
    </g>
    <g transform="matrix(0.850708,0,0,0.865658,-2.26189,7.1406)">
        <path d="M12.068,16C14.017,16 15.6,17.555 15.6,19.471C15.6,21.386 14.017,22.941 12.068,22.941C10.119,22.941 8.536,21.386 8.536,19.471C8.536,17.555 10.119,16 12.068,16ZM12.068,16.344C13.824,16.344 15.249,17.745 15.249,19.471C15.249,21.196 13.824,22.597 12.068,22.597C10.312,22.597 8.886,21.196 8.886,19.471C8.886,17.745 10.312,16.344 12.068,16.344Z" style="fill:rgb(21,95,132);"/>
    </g>
    <defs>
        <radialGradient id="_Radial1" cx="0" cy="0" r="1" gradientUnits="userSpaceOnUse" gradientTransform="matrix(-17.1879,-17.4049,17.1879,-17.4049,14.8121,14.5951)"><stop offset="0" style="stop-color:rgb(26,27,30);stop-opacity:1"/><stop offset="1" style="stop-color:rgb(21,21,24);stop-opacity:1"/></radialGradient>
    </defs>
</svg>
