<?xml version="1.0" encoding="UTF-8" standalone="no"?>
<!DOCTYPE svg PUBLIC "-//W3C//DTD SVG 1.1//EN" "http://www.w3.org/Graphics/SVG/1.1/DTD/svg11.dtd">
<svg width="100%" height="100%" viewBox="0 0 32 32" version="1.1" xmlns="http://www.w3.org/2000/svg" xmlns:xlink="http://www.w3.org/1999/xlink" xml:space="preserve" xmlns:serif="http://www.serif.com/" style="fill-rule:evenodd;clip-rule:evenodd;stroke-linejoin:round;stroke-miterlimit:2;">
    <g transform="matrix(0.930888,0,0,0.919283,2.21158,2.58294)">
        <rect x="-2.376" y="-2.81" width="34.376" height="34.81" style="fill:rgb(222,234,246);"/>
    </g>
    <g transform="matrix(1.06489,0,0,0.352014,-2.19881,-0.560433)">
        <path d="M28.359,15.206C28.359,13.964 28.025,12.955 27.615,12.955L14.095,12.955C13.685,12.955 13.351,13.964 13.351,15.206L13.351,27.749C13.351,28.992 13.685,30 14.095,30L27.615,30C28.025,30 28.359,28.992 28.359,27.749L28.359,15.206Z" style="fill:rgb(0,102,153);"/>
    </g>
    <g transform="matrix(0.849453,0,0,0.864381,-3.25117,-9.83009)">
        <ellipse cx="12.068" cy="19.471" rx="3.532" ry="3.471" style="fill:rgb(0,102,153);"/>
    </g>
    <g transform="matrix(1.06489,0,0,0.352014,-2.19881,8.43957)">
        <path d="M28.359,15.206C28.359,13.964 28.025,12.955 27.615,12.955L14.095,12.955C13.685,12.955 13.351,13.964 13.351,15.206L13.351,27.749C13.351,28.992 13.685,30 14.095,30L27.615,30C28.025,30 28.359,28.992 28.359,27.749L28.359,15.206Z" style="fill:rgb(0,102,153);"/>
    </g>
    <g transform="matrix(0.849453,0,0,0.864381,-3.25117,-0.830089)">
        <ellipse cx="12.068" cy="19.471" rx="3.532" ry="3.471" style="fill:rgb(0,102,153);"/>
    </g>
    <g transform="matrix(1.06489,0,0,0.352014,-2.19881,17.4396)">
        <path d="M28.359,15.206C28.359,13.964 28.025,12.955 27.615,12.955L14.095,12.955C13.685,12.955 13.351,13.964 13.351,15.206L13.351,27.749C13.351,28.992 13.685,30 14.095,30L27.615,30C28.025,30 28.359,28.992 28.359,27.749L28.359,15.206Z" style="fill:rgb(0,102,153);"/>
    </g>
    <g transform="matrix(0.849453,0,0,0.864381,-3.25117,8.37717)">
        <ellipse cx="12.068" cy="19.471" rx="3.532" ry="3.471" style="fill:rgb(0,102,153);"/>
    </g>
</svg>
