<?xml version="1.0" encoding="UTF-8" standalone="no"?><!DOCTYPE svg PUBLIC "-//W3C//DTD SVG 1.1//EN" "http://www.w3.org/Graphics/SVG/1.1/DTD/svg11.dtd"><svg width="100%" height="100%" viewBox="0 0 9 9" version="1.1" xmlns="http://www.w3.org/2000/svg" xmlns:xlink="http://www.w3.org/1999/xlink" xml:space="preserve" xmlns:serif="http://www.serif.com/" style="fill-rule:evenodd;clip-rule:evenodd;stroke-linejoin:round;stroke-miterlimit:2;"><path d="M2.286,0.001l-0.001,-0.001l4.465,0c1.242,0 2.25,1.008 2.25,2.25l0,4.5c0,1.242 -1.008,2.25 -2.25,2.25l-4.5,0c-1.242,0 -2.25,-1.008 -2.25,-2.25l0,-4.5c0,-0.542 0.192,-1.039 0.511,-1.428c0.002,-0.001 0.003,-0.003 0.004,-0.004c0.096,-0.114 0.267,-0.129 0.381,-0.033c0.115,0.097 0.13,0.267 0.034,0.382c0,0 -0.001,0 -0.001,0.001l0.002,0.002c-0.244,0.297 -0.391,0.678 -0.391,1.093l0,4.474c0,0.951 0.772,1.723 1.723,1.723l4.474,0c0.951,0 1.723,-0.772 1.723,-1.723l0,-4.474c0,-0.951 -0.772,-1.723 -1.723,-1.723l-4.382,0l0,0c-0.224,0 -0.405,0.182 -0.405,0.405c0,0.11 0.044,0.21 0.115,0.283l0,0l2.126,2.126l0,0c0.081,0.076 0.19,0.123 0.309,0.123c0.118,0 0.226,-0.046 0.307,-0.121l0.022,-0.023l0,0l0.51,-0.509l1.668,-1.669l0,0c0.049,-0.048 0.116,-0.078 0.19,-0.078c0.149,0 0.269,0.12 0.269,0.268c0,0.075 -0.03,0.142 -0.079,0.19l0,0l-2.247,2.248l0,-0.001c-0.163,0.166 -0.39,0.268 -0.64,0.268c-0.25,0 -0.477,-0.102 -0.64,-0.268l0,0.001l-2.247,-2.247l0.001,0c-0.163,-0.163 -0.264,-0.388 -0.264,-0.636c0,-0.497 0.403,-0.9 0.9,-0.9c0.012,0 0.024,0 0.036,0.001Z" style="fill:#1d0344;"/></svg>